<?xml version="1.0" standalone="no"?>
<!DOCTYPE svg PUBLIC "-//W3C//DTD SVG 20010904//EN"
 "http://www.w3.org/TR/2001/REC-SVG-20010904/DTD/svg10.dtd">
<svg version="1.0" xmlns="http://www.w3.org/2000/svg"
 width="128.000000pt" height="128.000000pt" viewBox="0 0 128.000000 128.000000"
 preserveAspectRatio="xMidYMid meet">
<metadata>
Created by potrace 1.14, written by Peter Selinger 2001-2017
</metadata>
<g transform="translate(0.000000,128.000000) scale(0.100000,-0.100000)"
fill="#000000" stroke="none">
<path d="M504 1258 c-16 -12 -59 -48 -95 -79 -56 -49 -67 -65 -76 -106 -12
-51 -10 -63 12 -63 9 0 19 18 26 46 10 38 24 56 90 115 l79 69 98 0 97 0 81
-70 82 -70 17 -77 c9 -43 23 -103 30 -133 l14 -55 -67 -102 c-46 -71 -73 -103
-86 -103 -18 0 -18 2 4 25 20 21 25 39 28 95 l4 69 26 -10 c29 -11 48 6 30 28
-14 17 -219 83 -258 83 -35 0 -215 -55 -248 -77 -32 -20 -13 -47 24 -33 24 9
24 9 24 -49 0 -45 5 -66 25 -95 21 -31 22 -36 7 -36 -10 0 -42 39 -84 103
l-67 102 11 53 c6 29 8 55 5 59 -16 15 -36 -11 -47 -62 -11 -51 -10 -59 10
-92 24 -41 21 -45 -35 -61 -22 -6 -48 -17 -57 -24 -28 -21 -200 -417 -194
-444 4 -14 45 -53 106 -99 91 -69 100 -79 100 -108 0 -18 5 -38 12 -45 17 -17
799 -17 816 0 7 7 12 27 12 45 0 29 9 39 100 108 61 46 102 85 106 99 6 27
-166 423 -194 444 -9 7 -35 18 -57 24 -56 16 -59 20 -34 62 l21 36 -33 146
-33 145 -65 58 c-122 106 -111 101 -231 101 -95 0 -111 -2 -136 -22z m246
-407 l45 -17 3 -60 c3 -70 -18 -107 -74 -130 -43 -18 -125 -18 -168 0 -55 23
-76 59 -76 131 l0 62 63 18 c34 9 67 19 72 21 17 5 88 -8 135 -25z m-376 -171
c14 -22 26 -42 26 -45 0 -3 -29 -5 -64 -5 -36 0 -76 -4 -90 -10 l-26 -9 -2
-235 -3 -235 -80 60 c-44 33 -81 66 -83 72 -3 14 162 385 179 402 5 5 33 17
62 27 29 9 53 16 53 17 1 1 13 -17 28 -39z m673 -4 c22 -20 183 -389 178 -405
-5 -15 -144 -121 -159 -121 -3 0 -6 104 -6 230 l0 230 -26 10 c-14 6 -54 10
-90 10 -35 0 -64 2 -64 5 0 3 11 23 26 44 l25 39 52 -15 c29 -8 57 -20 64 -27z
m-347 -221 c33 -17 60 -61 60 -100 0 -27 -31 -65 -55 -65 -8 0 -17 -11 -21
-25 -5 -21 -12 -25 -44 -25 -32 0 -39 4 -44 25 -4 14 -13 25 -21 25 -24 0 -55
38 -55 65 0 88 99 142 180 100z m230 -365 c0 -5 20 -10 45 -10 38 0 45 -3 45
-20 0 -20 -7 -20 -380 -20 -373 0 -380 0 -380 20 0 20 7 20 299 20 189 0 302
4 306 10 3 6 19 10 36 10 16 0 29 -4 29 -10z"/>
<path d="M560 377 c0 -8 10 -23 23 -35 18 -17 26 -19 35 -10 9 9 7 17 -10 35
-24 25 -48 30 -48 10z"/>
<path d="M672 367 c-17 -18 -19 -26 -10 -35 9 -9 17 -7 35 10 13 12 23 27 23
35 0 20 -24 15 -48 -10z"/>
</g>
</svg>
